<svg id="グループ_878" data-name="グループ 878" xmlns="http://www.w3.org/2000/svg" width="39.893" height="39.893" viewBox="0 0 39.893 39.893">
  <g id="icon" transform="translate(0 0)">
    <path id="パス_1740" data-name="パス 1740" d="M19.946,0A19.946,19.946,0,1,1,0,19.946,19.946,19.946,0,0,1,19.946,0Z"/>
    <g id="playlist" transform="translate(11.676 8.871)">
      <path id="パス_53" data-name="パス 53" d="M174.467,23.189a7.778,7.778,0,0,0-3.011-2.964,8.474,8.474,0,0,1-2.223-1.88l-.105-.142a3.681,3.681,0,0,1-.774-1.388.82.82,0,0,0-.885-.721.836.836,0,0,0-.778.835v14.9a4.839,4.839,0,0,0-2.509-.686c-2.3,0-4.182,1.5-4.182,3.345s1.877,3.345,4.182,3.345,4.182-1.5,4.182-3.345V24.743a6.021,6.021,0,0,1,3.877,4.558,4.525,4.525,0,0,1-.323.457.836.836,0,1,0,1.255,1.1,8.537,8.537,0,0,0,1.88-4.914A5.551,5.551,0,0,0,174.467,23.189Z" transform="translate(-160 -16.093)" fill="#fff"/>
    </g>
  </g>
</svg>
