<svg xmlns="http://www.w3.org/2000/svg" xmlns:xlink="http://www.w3.org/1999/xlink" width="22" height="22" viewBox="0 0 22 22">
  <defs>
    <clipPath id="clip-path">
      <rect id="長方形_6835" data-name="長方形 6835" width="22" height="22" fill="#f71e62"/>
    </clipPath>
  </defs>
  <g id="check-icon" clip-path="url(#clip-path)">
    <path id="パス_1710" data-name="パス 1710" d="M9.136,15.858l8.831-8.831L16.653,5.714,9.136,13.231,5.5,9.594,4.186,10.908ZM1.833,22A1.759,1.759,0,0,1,.55,21.45,1.759,1.759,0,0,1,0,20.167V1.833A1.759,1.759,0,0,1,.55.55,1.759,1.759,0,0,1,1.833,0H20.167A1.759,1.759,0,0,1,21.45.55,1.759,1.759,0,0,1,22,1.833V20.167A1.88,1.88,0,0,1,20.167,22Zm0-1.833H20.167V1.833H1.833Zm0-18.333v0Z" fill="#f71e62"/>
  </g>
</svg>
