<?xml version="1.0" encoding="utf-8"?>
<!-- Generator: Adobe Illustrator 25.4.1, SVG Export Plug-In . SVG Version: 6.00 Build 0)  -->
<svg version="1.1" id="レイヤー_1" xmlns="http://www.w3.org/2000/svg" xmlns:xlink="http://www.w3.org/1999/xlink" x="0px"
	 y="0px" viewBox="0 0 600 69" style="enable-background:new 0 0 600 69;" xml:space="preserve">
<g id="レイヤー_2">
</g>
<path d="M60.2,0.5L72,50.4L85.2,0.5h10.5l13.5,50.2l12.2-50.2h11.8l-17,68h-12.7L90.1,18.9L76.3,68.5H64.2l-14.4-58H31.7v58H18.9
	v-58H0v-10H60.2z M144.2,68.5H157v-68h-12.7V68.5z M217.2,49.7L188.6,0.5h-15.1v68h11.5V16.4l30.6,52.1h13.1v-68h-11.5V49.7z
	 M314.8,21.5v0.4c0,6.9-2.3,12.1-6.8,15.6c-4.5,3.5-10.6,5.2-18.2,5.2h-9.5v25.9h-12.7v-68h21.9c7.9,0,14,1.8,18.5,5.3
	C312.6,9.4,314.8,14.6,314.8,21.5z M302.4,21.5c0-7.5-4.3-11.2-12.8-11.2h-9.2v23.2h9.2c8.6,0,12.8-3.9,12.8-11.6V21.5z M387.3,0.5
	h16.6l22.5,68h-13.1l-5.4-16.8h-26l-5.3,16.8H326v-68h12.7v57.9h29L387.3,0.5z M404.8,42.4l-10-31.6l-10.1,31.6H404.8z M480.8,49.7
	L452.2,0.5H437v68h11.5V16.4l30.6,52.1h13.1v-68h-11.5V49.7z M568.3,10.5v58h12.7v-58H600v-10h-91.7v68h44.1v-10h-31.5V38.6h24v-9.5
	h-24V10.5H568.3z"/>
</svg>
